@startuml

title __DECISION_TABLE's Class Diagram__\n

    namespace decision_table {
      class decision_table.Condition {
                 - ID : int
                 - name : String
                 + Condition()
                 + compareTo()
                 + equals()
                 + getID()
                 + getName()
                 + hashCode()
                 + setID()
                 + setName()
                 + toString()
      }
  }


  decision_table.Condition .up.|> java.lang.Comparable

right footer


PlantUML diagram generated by SketchIt! (https://bitbucket.org/pmesmeur/sketch.it)
For more information about this tool, please contact philippe.mesmeur@gmail.com
endfooter

@enduml
@startuml
'https://plantuml.com/class-diagram

abstract class AbstractList
abstract AbstractCollection
interface List
interface Collection

List <|-- AbstractList
Collection <|-- AbstractCollection

Collection <|- List
AbstractCollection <|- AbstractList
AbstractList <|-- ArrayList

class ArrayList {
Object[] elementData
size()
}

enum TimeUnit {
DAYS
HOURS
MINUTES
}

@enduml